%TF.GenerationSoftware,KiCad,Pcbnew,(6.0.2)*%
%TF.CreationDate,2022-04-12T11:14:46+02:00*%
%TF.ProjectId,pcb,7063622e-6b69-4636-9164-5f7063625858,rev?*%
%TF.SameCoordinates,Original*%
%TF.FileFunction,Copper,L2,Bot*%
%TF.FilePolarity,Positive*%
%FSLAX46Y46*%
G04 Gerber Fmt 4.6, Leading zero omitted, Abs format (unit mm)*
G04 Created by KiCad (PCBNEW (6.0.2)) date 2022-04-12 11:14:46*
%MOMM*%
%LPD*%
G01*
G04 APERTURE LIST*
%TA.AperFunction,NonConductor*%
%ADD10C,0.200000*%
%TD*%
%ADD11C,0.125000*%
%TA.AperFunction,NonConductor*%
%ADD12C,0.125000*%
%TD*%
%TA.AperFunction,ComponentPad*%
%ADD13C,0.300000*%
%TD*%
%TA.AperFunction,ComponentPad*%
%ADD14O,4.200000X2.100000*%
%TD*%
%TA.AperFunction,ComponentPad*%
%ADD15R,2.000000X2.000000*%
%TD*%
%TA.AperFunction,ComponentPad*%
%ADD16C,2.000000*%
%TD*%
%TA.AperFunction,ComponentPad*%
%ADD17O,2.100000X4.200000*%
%TD*%
%TA.AperFunction,SMDPad,CuDef*%
%ADD18R,1.900000X3.000000*%
%TD*%
%TA.AperFunction,ViaPad*%
%ADD19C,2.000000*%
%TD*%
%TA.AperFunction,Conductor*%
%ADD20C,0.500000*%
%TD*%
G04 APERTURE END LIST*
D10*
X137795000Y-51816000D02*
X190627000Y-51816000D01*
X190627000Y-51816000D02*
X190627000Y-81788000D01*
X190627000Y-81788000D02*
X137795000Y-81788000D01*
X137795000Y-81788000D02*
X137795000Y-51816000D01*
D11*
D12*
X182582333Y-64107190D02*
X182749000Y-63869095D01*
X182868047Y-64107190D02*
X182868047Y-63607190D01*
X182677571Y-63607190D01*
X182629952Y-63631000D01*
X182606142Y-63654809D01*
X182582333Y-63702428D01*
X182582333Y-63773857D01*
X182606142Y-63821476D01*
X182629952Y-63845285D01*
X182677571Y-63869095D01*
X182868047Y-63869095D01*
X182415666Y-63607190D02*
X182082333Y-64107190D01*
X182082333Y-63607190D02*
X182415666Y-64107190D01*
D11*
D12*
X175640952Y-63480190D02*
X175355238Y-63480190D01*
X175498095Y-63980190D02*
X175498095Y-63480190D01*
X175236190Y-63480190D02*
X174902857Y-63980190D01*
X174902857Y-63480190D02*
X175236190Y-63980190D01*
D13*
%TO.P,U1,39_10,GND*%
%TO.N,GND*%
X161207500Y-63828000D03*
%TO.P,U1,39_11,GND*%
X162607500Y-63828000D03*
%TO.P,U1,39_12,GND*%
X160507500Y-64528000D03*
%TO.P,U1,39_13,GND*%
X161907500Y-64528000D03*
%TO.P,U1,39_14,GND*%
X163307500Y-64528000D03*
%TO.P,U1,39_15,GND*%
X161207500Y-65228000D03*
%TO.P,U1,39_16,GND*%
X162607500Y-65228000D03*
%TO.P,U1,39_17,GND*%
X160507500Y-65928000D03*
%TO.P,U1,39_18,GND*%
X161907500Y-65928000D03*
%TO.P,U1,39_19,GND*%
X163307500Y-65928000D03*
%TO.P,U1,39_20,GND*%
X161207500Y-66628000D03*
%TO.P,U1,39_21,GND*%
X162607500Y-66628000D03*
%TD*%
D14*
%TO.P,U5,P$1,P$1*%
%TO.N,Net-(U5-PadP$1)*%
X141195000Y-68933000D03*
%TO.P,U5,P$2,P$2*%
%TO.N,GND*%
X141195000Y-65433000D03*
%TD*%
D15*
%TO.P,SW1,1*%
%TO.N,GND*%
X146340000Y-76656000D03*
D16*
%TO.P,SW1,2*%
X146340000Y-70156000D03*
%TO.P,SW1,3*%
%TO.N,Net-(C1-Pad2)*%
X150840000Y-76506000D03*
%TO.P,SW1,4*%
X150840000Y-70156000D03*
%TD*%
D17*
%TO.P,U4,P$1,P$1*%
%TO.N,Net-(U1-Pad34)*%
X177066000Y-62709000D03*
%TO.P,U4,P$2,P$2*%
%TO.N,Net-(U1-Pad35)*%
X180566000Y-62709000D03*
%TD*%
D14*
%TO.P,U6,P$1,P$1*%
%TO.N,GND*%
X141195000Y-61186000D03*
%TO.P,U6,P$2,P$2*%
%TO.N,Net-(C2-Pad2)*%
X141195000Y-57686000D03*
%TD*%
D15*
%TO.P,SW2,1*%
%TO.N,Net-(SW2-Pad1)*%
X183336000Y-75148000D03*
D16*
%TO.P,SW2,2*%
X176836000Y-75148000D03*
%TO.P,SW2,3*%
%TO.N,GND*%
X183186000Y-70648000D03*
%TO.P,SW2,4*%
X176836000Y-70648000D03*
%TD*%
D18*
%TO.P,U2,1,GND*%
%TO.N,unconnected-(U2-Pad1)*%
X167386000Y-77089000D03*
%TO.P,U2,2,RD*%
%TO.N,unconnected-(U2-Pad2)*%
X164846000Y-77089000D03*
%TO.P,U2,3,IRD*%
%TO.N,unconnected-(U2-Pad3)*%
X162306000Y-77089000D03*
%TO.P,U2,4,INT*%
%TO.N,unconnected-(U2-Pad4)*%
X159766000Y-77089000D03*
%TO.P,U2,5,VIN*%
%TO.N,Net-(C2-Pad2)*%
X167386000Y-60579000D03*
%TO.P,U2,6,SDA*%
%TO.N,Net-(U1-Pad33)*%
X164846000Y-60579000D03*
%TO.P,U2,7,SCL*%
%TO.N,Net-(U1-Pad36)*%
X162306000Y-60579000D03*
%TO.P,U2,8,GND*%
%TO.N,GND*%
X159766000Y-60579000D03*
%TD*%
D19*
%TO.N,Net-(C2-Pad2)*%
X144526000Y-62992000D03*
%TO.N,Net-(U5-PadP$1)*%
X148209000Y-56642000D03*
%TO.N,GND*%
X184277000Y-60071000D03*
X186055000Y-74295000D03*
%TO.N,Net-(C2-Pad2)*%
X152273000Y-54483000D03*
X152400000Y-59309000D03*
%TO.N,Net-(U1-Pad36)*%
X177673000Y-57277000D03*
%TO.N,Net-(U1-Pad33)*%
X179959000Y-78105000D03*
%TD*%
D20*
%TO.N,GND*%
X141195000Y-61186000D02*
X141195000Y-65433000D01*
%TO.N,Net-(C2-Pad2)*%
X141477000Y-57404000D02*
X141195000Y-57686000D01*
X144780000Y-58166000D02*
X144018000Y-57404000D01*
X144780000Y-62738000D02*
X144780000Y-58166000D01*
X144526000Y-62992000D02*
X144780000Y-62738000D01*
X144018000Y-57404000D02*
X141477000Y-57404000D01*
%TO.N,Net-(U5-PadP$1)*%
X148209000Y-63754000D02*
X143030000Y-68933000D01*
X143030000Y-68933000D02*
X141195000Y-68933000D01*
X148209000Y-56642000D02*
X148209000Y-63754000D01*
%TO.N,Net-(C2-Pad2)*%
X141195000Y-56290000D02*
X143002000Y-54483000D01*
X143002000Y-54483000D02*
X152273000Y-54483000D01*
X141195000Y-57686000D02*
X141195000Y-56290000D01*
%TO.N,GND*%
X185674000Y-68072000D02*
X184277000Y-66675000D01*
X157311480Y-80476480D02*
X186731520Y-80476480D01*
X186731520Y-80476480D02*
X186817000Y-80391000D01*
X184277000Y-66675000D02*
X184277000Y-60071000D01*
X159893000Y-72136000D02*
X156845000Y-75184000D01*
X159766000Y-60579000D02*
X159893000Y-60706000D01*
X186055000Y-74295000D02*
X185674000Y-73914000D01*
X186817000Y-80391000D02*
X186817000Y-75057000D01*
X156845000Y-80010000D02*
X157311480Y-80476480D01*
X156845000Y-75184000D02*
X156845000Y-80010000D01*
X186817000Y-75057000D02*
X186055000Y-74295000D01*
X159893000Y-60706000D02*
X159893000Y-72136000D01*
X185674000Y-73914000D02*
X185674000Y-68072000D01*
%TO.N,Net-(C2-Pad2)*%
X180594000Y-58039000D02*
X180594000Y-55880000D01*
X180594000Y-55880000D02*
X178943000Y-54229000D01*
X152273000Y-54483000D02*
X152273000Y-59182000D01*
X172593000Y-59309000D02*
X179324000Y-59309000D01*
X167386000Y-60579000D02*
X167805520Y-60159480D01*
X152400000Y-59309000D02*
X152781000Y-58928000D01*
X152273000Y-59182000D02*
X152400000Y-59309000D01*
X167805520Y-60159480D02*
X171742520Y-60159480D01*
X171742520Y-60159480D02*
X172593000Y-59309000D01*
X179324000Y-59309000D02*
X180594000Y-58039000D01*
X152527000Y-54229000D02*
X152273000Y-54483000D01*
X178943000Y-54229000D02*
X152527000Y-54229000D01*
%TO.N,Net-(U1-Pad36)*%
X177419000Y-57023000D02*
X177673000Y-57277000D01*
X162306000Y-60579000D02*
X162306000Y-60029000D01*
X165312000Y-57023000D02*
X177419000Y-57023000D01*
X162306000Y-60029000D02*
X165312000Y-57023000D01*
%TO.N,Net-(U1-Pad33)*%
X164846000Y-60579000D02*
X164846000Y-59563000D01*
X171450000Y-78232000D02*
X171450000Y-71755000D01*
X171450000Y-71755000D02*
X164846000Y-65151000D01*
X179959000Y-78105000D02*
X179832000Y-78232000D01*
X164846000Y-65151000D02*
X164846000Y-60579000D01*
X179832000Y-78232000D02*
X171450000Y-78232000D01*
%TD*%
M02*
